<?xml version="1.0" encoding="utf-8"?><svg viewBox="0 0 32 32" xmlns="http://www.w3.org/2000/svg" xmlns:xlink="http://www.w3.org/1999/xlink"><style>:root>svg{display:none}:root>svg:target{display:block}</style><svg fill="none" viewBox="0 0 29 25" id="android-green" xmlns="http://www.w3.org/2000/svg"><g clip-path="url(#aclip0_55_3719)"><path d="M1.965 20.207C.997 20.207 0 20.964 0 22.29c0 1.212.877 2.068 1.965 2.068.898 0 1.299-.589 1.299-.589v.257c0 .121.118.257.263.257h.65v-3.986h-.913v.506s-.404-.597-1.3-.597zm.163.815c.797 0 1.215.684 1.215 1.268 0 .65-.496 1.267-1.214 1.268-.6 0-1.2-.474-1.2-1.277 0-.724.516-1.26 1.199-1.26zm3.317 3.263c-.141 0-.263-.098-.263-.257v-3.73h.913v.494c.207-.303.61-.585 1.231-.585 1.013 0 1.553.789 1.553 1.526v2.552h-.633a.276.276 0 01-.279-.272V21.93c0-.41-.257-.906-.85-.906-.641 0-1.023.59-1.023 1.148v2.113h-.65zm6.098-4.075c-.968 0-1.965.758-1.965 2.083 0 1.212.877 2.069 1.965 2.069.898 0 1.3-.59 1.3-.59v.257c0 .122.117.257.262.257h.65v-5.98h-.913v2.5s-.404-.596-1.299-.596zm.163.814c.797 0 1.215.685 1.215 1.269 0 .65-.496 1.268-1.214 1.268-.6 0-1.2-.474-1.2-1.277 0-.724.516-1.26 1.199-1.26zm3.316 3.258c-.141 0-.263-.099-.263-.257v-3.73h.912v.665c.157-.372.497-.71 1.099-.71.167 0 .324.03.324.03v.921s-.196-.075-.433-.075c-.64 0-.99.59-.99 1.147v2.009h-.65zm7.611.004c-.14 0-.264-.098-.264-.257V20.3h.913v3.987h-.649zm3.329-4.076c-.97 0-1.965.758-1.965 2.083 0 1.212.876 2.069 1.965 2.069.898 0 1.299-.59 1.299-.59v.257c0 .122.118.257.263.257h.65v-5.98h-.913v2.5s-.404-.596-1.3-.596zm.163.814c.797 0 1.215.685 1.215 1.269 0 .65-.497 1.268-1.214 1.268-.6 0-1.2-.474-1.2-1.277 0-.724.516-1.26 1.199-1.26zm-3.304-1.586a.596.596 0 00.603-.589.598.598 0 00-.604-.59.597.597 0 00-.603.59c0 .326.27.589.603.589zm-3.318.769c-1.014 0-2.13.739-2.13 2.077 0 1.221.95 2.077 2.129 2.077 1.45 0 2.16-1.139 2.16-2.068 0-1.14-.915-2.086-2.16-2.086zm.004.831c.701 0 1.225.553 1.225 1.25 0 .708-.555 1.255-1.223 1.255-.62 0-1.221-.492-1.221-1.244 0-.764.572-1.26 1.219-1.26zm1.452-16.035l2.337-3.948a.458.458 0 00-.172-.631.475.475 0 00-.644.166l-2.366 4c-1.805-.803-3.838-1.252-6.023-1.252-2.185 0-4.218.449-6.023 1.252L5.703.592a.478.478 0 00-.866.112.455.455 0 00.048.35l2.335 3.95A13.597 13.597 0 00.014 15.768h28.155a13.593 13.593 0 00-7.21-10.765zM7.628 11.91c-.652 0-1.18-.517-1.18-1.152 0-.636.53-1.152 1.18-1.152.653 0 1.18.518 1.18 1.152.003.635-.528 1.152-1.18 1.152zm12.925 0c-.653 0-1.18-.517-1.18-1.152 0-.636.53-1.152 1.18-1.152.653 0 1.18.518 1.18 1.152.003.635-.527 1.152-1.18 1.152z" fill="#61DA84"/></g><defs><clipPath id="aclip0_55_3719"><path fill="#fff" transform="translate(0 .36)" d="M0 0h28.174v24H0z"/></clipPath></defs></svg><svg fill="none" viewBox="0 0 22 24" id="apple" xmlns="http://www.w3.org/2000/svg"><path d="M17.778 12.684c-.01-1.967.879-3.451 2.679-4.545-1.007-1.441-2.53-2.234-4.539-2.39-1.902-.15-3.98 1.11-4.741 1.11-.804 0-2.648-1.056-4.094-1.056C4.093 5.85.916 8.187.916 12.94c0 1.403.257 2.856.772 4.35.685 1.967 3.16 6.79 5.743 6.709 1.35-.032 2.304-.959 4.061-.959 1.704 0 2.59.959 4.093.959 2.605-.037 4.845-4.42 5.5-6.392-3.494-1.644-3.307-4.822-3.307-4.924zm-3.032-8.8C16.209 2.149 16.075.569 16.032 0c-1.292.074-2.787.88-3.64 1.87-.937 1.061-1.488 2.374-1.37 3.852 1.397.107 2.673-.61 3.724-1.837z" fill="#fff"/></svg><svg viewBox="0 0 24 24" id="chevron" xmlns="http://www.w3.org/2000/svg"><path d="M16.7 10.3c-.4-.4-1-.4-1.4 0L12 13.6l-3.3-3.3c-.4-.4-1-.4-1.4 0-.4.4-.4 1 0 1.4l4 4c.2.2.4.3.7.3.3 0 .5-.1.7-.3l4-4c.4-.4.4-1 0-1.4z"/></svg><svg viewBox="0 0 24 24" id="close" xmlns="http://www.w3.org/2000/svg"><path d="M13.4 12l4.3-4.3c.4-.4.4-1 0-1.4-.4-.4-1-.4-1.4 0L12 10.6 7.7 6.3c-.4-.4-1-.4-1.4 0-.4.4-.4 1 0 1.4l4.3 4.3-4.3 4.3c-.4.4-.4 1 0 1.4.2.2.4.3.7.3.3 0 .5-.1.7-.3l4.3-4.3 4.3 4.3c.2.2.5.3.7.3.2 0 .5-.1.7-.3.4-.4.4-1 0-1.4L13.4 12z"/></svg><svg viewBox="0 0 24 24" id="download" xmlns="http://www.w3.org/2000/svg"><path fill-rule="evenodd" clip-rule="evenodd" d="M6.75 12.568l4.27-4.599c.229-.224.571-.448 1.028-.448.331 0 .589.177.793.317.077.053.146.1.209.131l4.34 4.659.114.112c.114.224.228.448.228.672 0 .56-.456 1.01-1.027 1.01h-2.397l.015 4.428c0 .56-.571 1.121-1.142 1.121L10.825 20c-.57 0-1.141-.56-1.141-1.121v-4.458l-2.364-.06c-.57 0-1.027-.448-1.027-1.008 0-.224.228-.56.457-.785zm10.964-6.282a1.143 1.143 0 000-2.286H6.286a1.143 1.143 0 100 2.286h11.428z"/></svg><svg viewBox="0 0 24 24" id="flame" xmlns="http://www.w3.org/2000/svg"><path d="M6.878 6.783A8.597 8.597 0 0010.958 0a10.243 10.243 0 015.652 9.16c0 1.18-.2 2.312-.567 3.367a5.131 5.131 0 003.506-3.735A9.223 9.223 0 0116.098 24a9.223 9.223 0 01-6.142-8.999 8.164 8.164 0 00-2.053 5.426c0 .994.177 1.947.5 2.828a8.71 8.71 0 01-2.19-16.063l.665-.409z"/></svg><svg fill="none" viewBox="0 0 24 24" id="gift" xmlns="http://www.w3.org/2000/svg"><mask id="ga" style="mask-type:luminance" maskUnits="userSpaceOnUse" x="4" y="4" width="16" height="16"><path d="M4 4h16v16H4V4z" fill="#fff"/></mask><g mask="url(#ga)"><path fill-rule="evenodd" clip-rule="evenodd" d="M6.914 4.78A2.666 2.666 0 018.8 4 3.731 3.731 0 0112 5.81 3.732 3.732 0 0115.2 4a2.666 2.666 0 012.666 2.666v.305c0 .478-.141.924-.385 1.295h.919a1.6 1.6 0 011.6 1.6v1.068a1.6 1.6 0 01-1.6 1.6h-5.866V8.266h2.971c.714 0 1.295-.58 1.295-1.295v-.305a1.6 1.6 0 00-1.6-1.6 2.667 2.667 0 00-2.666 2.668v.532h-1.068v-.532A2.668 2.668 0 008.8 5.066a1.6 1.6 0 00-1.6 1.6v.305c0 .716.58 1.295 1.295 1.295h2.971v4.268H5.6a1.6 1.6 0 01-1.6-1.6V9.866a1.6 1.6 0 011.6-1.6h.92a2.352 2.352 0 01-.386-1.295v-.305c0-.707.28-1.385.78-1.885zM5.066 13.6h6.4V20H7.734a2.666 2.666 0 01-2.668-2.666V13.6zm11.2 6.4h-3.732v-6.4h6.4v3.734A2.665 2.665 0 0116.266 20z" fill="#fff"/></g></svg><svg viewBox="0 0 32 32" id="gift-btn" xmlns="http://www.w3.org/2000/svg"><path class="hshake" d="M13.954 10.268l1.216 6.892-7.878 1.389.348 1.97 7.877-1.39 1.738 9.848 1.97-.347-1.739-9.848 7.877-1.39 1.07 6.066c.217 1.234.184 1.752.037 2.246l-.03.099a2.726 2.726 0 01-.92 1.314c-.436.342-.89.563-2.207.796l-10.153 1.79c-1.317.232-1.819.18-2.346.007a2.726 2.726 0 01-1.313-.92c-.343-.436-.564-.89-.796-2.207L7.288 18.55l-1.473.26a1.5 1.5 0 01-1.738-1.217l-.368-2.09c-.134-.762-.098-1.356.075-1.883.172-.527.484-.971.92-1.314.436-.342.981-.58 1.744-.714l7.506-1.324zM23.8 8.532a3 3 0 013.476 2.434l.434 2.46a1.5 1.5 0 01-1.217 1.738l-9.353 1.648-1.215-6.892L23.8 8.532zm-.906-3.225c.34 1.927-3.83 4.001-7.699 4.74l-.257.048c.619-4.17 1.546-6.59 2.782-7.26 1.853-1.004 4.827.503 5.174 2.472zM9.84 4.224c1.347.2 2.983 2.043 4.91 5.528l.187.343c-3.94.695-8.767.192-9.114-1.778-.347-1.97 1.932-4.402 4.017-4.093z"/></svg><svg viewBox="0 0 24 25" id="information" xmlns="http://www.w3.org/2000/svg"><path fill-rule="evenodd" clip-rule="evenodd" d="M12 4.922c4.415 0 8 3.585 8 8s-3.585 8-8 8-8-3.585-8-8 3.585-8 8-8zm1.331 12a.996.996 0 000-1.993h-.333v-3.25c0-.443-.239-.757-.68-.757h-1.635a1.006 1.006 0 000 2.01h.312v1.997h-.341a.997.997 0 100 1.993h2.677zM12 7.58a1.342 1.342 0 110 2.684 1.342 1.342 0 010-2.684z"/></svg><svg fill="none" viewBox="0 0 16 16" id="live" xmlns="http://www.w3.org/2000/svg"><g clip-path="url(#jclip0_3238_525)" fill="red"><circle cx="8" cy="8" r="8" fill-opacity=".25"/><circle cx="8" cy="8" r="4"/></g><defs><clipPath id="jclip0_3238_525"><path fill="#fff" d="M0 0h16v16H0z"/></clipPath></defs></svg><svg fill="none" viewBox="0 0 24 24" id="menu" xmlns="http://www.w3.org/2000/svg"><path fill-rule="evenodd" clip-rule="evenodd" d="M18 16a1 1 0 010 2H6a1 1 0 010-2h12zm0-5a1 1 0 010 2H6a1 1 0 010-2h12zm0-5a1 1 0 010 2H6a1 1 0 010-2h12z" fill="#fff"/></svg><svg viewBox="0 0 24 24" id="people" xmlns="http://www.w3.org/2000/svg"><path fill-rule="evenodd" clip-rule="evenodd" d="M9.732 12.606A4.5 4.5 0 017.5 8.72V5.316c0-2.484 2.016-4.5 4.5-4.5s4.5 2.016 4.5 4.5V8.72a4.5 4.5 0 01-2.232 3.886V13.8A6.753 6.753 0 0121 20.55V21a1.5 1.5 0 01-1.5 1.5h-15A1.5 1.5 0 013 21v-.45a6.753 6.753 0 016.732-6.75v-1.194z"/></svg><svg viewBox="0 0 24 24" id="right-arrow" xmlns="http://www.w3.org/2000/svg"><path fill-rule="evenodd" clip-rule="evenodd" d="M19.044 10.884l-4.559-4.559a1.501 1.501 0 00-2.123 2.121l2.017 2.017H5.923c-.826 0-1.5.671-1.5 1.5 0 .826.674 1.5 1.5 1.5h8.456l-2.016 2.014a1.503 1.503 0 000 2.122 1.503 1.503 0 002.123 0l4.558-4.56a1.49 1.49 0 00.456-1.077c0-.383-.145-.768-.44-1.062l-.016-.016z"/></svg><svg viewBox="0 0 24 25" id="verified" xmlns="http://www.w3.org/2000/svg"><path d="M20 12.922a2.97 2.97 0 00-1.71-2.607 2.957 2.957 0 00-.631-3.052 2.957 2.957 0 00-3.051-.632A2.953 2.953 0 0012 4.922a2.948 2.948 0 00-2.6 1.71 2.956 2.956 0 00-1.619-.119 2.95 2.95 0 00-1.439.751 2.947 2.947 0 00-.625 3.052A2.971 2.971 0 004 12.922a2.976 2.976 0 001.717 2.607 2.956 2.956 0 00.624 3.052 2.973 2.973 0 003.052.631A2.969 2.969 0 0012 20.922a2.959 2.959 0 002.607-1.709 2.839 2.839 0 003.683-3.684A2.967 2.967 0 0020 12.922zM10.86 16.2L7.942 13.28l1.101-1.108 1.764 1.764 3.747-4.082 1.146 1.06-4.838 5.285z"/></svg><svg viewBox="0 0 25 24" id="x75" xmlns="http://www.w3.org/2000/svg"><path d="M9.995 18.968c.06.479.09.777.045.867-.045.12-.195.194-.465.224l-.285.045c-.15 0-.27.03-.36.045-.09.014-.24.03-.45.044a4.93 4.93 0 00-.435.045c-.075 0-.495-.418-1.245-1.27-.75-.851-1.14-1.3-1.155-1.3-.09.105-.375.643-.84 1.63-.45.94-.72 1.448-.81 1.493-.06.03-.24.06-.54.104-.99.135-1.5.15-1.515.045-.015-.104-.045-.254-.075-.433-.03-.18-.06-.329-.075-.433-.09-.613-.09-.971-.045-1.09 0 0 .33-.598.975-1.778.525-.956.78-1.494.765-1.614-.015-.119-.405-.567-1.17-1.329-.48-.478-.96-.941-1.425-1.419a.801.801 0 01-.12-.314c-.015-.104-.045-.239-.06-.418 0-.21-.03-.329-.03-.358 0-.105-.045-.254-.09-.449a7.65 7.65 0 01-.09-.448c-.015-.09.06-.15.24-.179.105-.015.27-.03.495-.045.225-.015.39-.03.495-.045.09 0 .24-.03.42-.074.18-.045.33-.06.42-.075.075 0 .495.418 1.245 1.3.75.88 1.155 1.3 1.185 1.3.09-.075.375-.628.855-1.644.465-.986.735-1.494.825-1.509l1.725-.239c.165-.03.255 0 .27.09l.24 1.793c.015.134-.285.731-.885 1.822-.6 1.09-.915 1.658-.9 1.718 0 .09.405.522 1.185 1.314.915.941 1.395 1.42 1.44 1.464.09.105.165.463.255 1.105l-.015.015z"/><path d="M15.95 5.091c.03.12-.03.27-.165.463-.315.419-.615 1.12-.915 2.122-.24.836-.42 1.598-.525 2.285a18.742 18.742 0 00-.075 4.84c.045.418-.045.687-.27.806-.18.09-.78.24-1.8.449-.615.12-.99.179-1.11.194-.57.045-.87-.045-.915-.299-.18-.926-.12-2.166.21-3.705.225-1.075.57-2.285 1.035-3.63.405-1.15.6-1.717.6-1.717 0-.06-.15-.075-.435-.015-.48.09-1.2.254-2.145.493-.945.239-1.665.403-2.145.493-.165.03-.255-.03-.285-.194a5.229 5.229 0 01-.06-.807 8.16 8.16 0 00-.03-.807c-.03-.299-.12-.777-.255-1.464-.03-.164.09-.283.39-.343.27-.06.63-.105 1.08-.135.615-.06.975-.09 1.095-.104 1.14-.135 3.06-.463 5.775-1.001.285-.06.48.06.57.358.135.449.27 1.031.405 1.718h-.03zM24.5 15.428c0 2.943-1.83 4.422-5.475 4.422-.525 0-1.245-.06-2.13-.165-1.155-.149-1.755-.313-1.815-.522-.03-.09-.045-.374-.045-.882 0-.283.03-.642.105-1.105.09-.598.18-.896.3-.896.03 0 .09.015.165.06.795.388 1.695.597 2.715.597 1.47 0 2.19-.478 2.19-1.42 0-.522-.27-.91-.81-1.18-.42-.208-.915-.313-1.5-.313-.24 0-.615.03-1.095.09s-.855.09-1.095.09c-.225 0-.345-.105-.345-.314 0-.628.03-1.599.09-2.898.06-1.3.09-2.27.09-2.898 0-.12.045-.254.15-.389.105-.134.21-.209.33-.239.15-.03 1.065-.044 2.76-.044 1.92 0 3.225 0 3.885.015.18 0 .27.09.27.224 0 .373-.045.896-.12 1.538-.105.837-.225 1.255-.36 1.255h-.105c-1.5-.134-2.43-.21-2.805-.21-.735 0-1.125.046-1.17.12-.12.195-.165.568-.165 1.12 0 .09.015.15.045.195.165 0 .42-.015.78-.045.345-.03.6-.045.78-.045 1.23 0 2.25.329 3.075.986.885.702 1.32 1.658 1.32 2.868l-.015-.015z"/></svg></svg>