<svg width="24" height="24" viewBox="0 0 24 24" xmlns="http://www.w3.org/2000/svg">

    <!-- Baseball -->
    <g id="icon1" opacity="1">
        <g clip-path="url(#clip0_2898_78)">
    <path d="M23.9796 3.18602C23.955 3.08762 23.7111 2.19842 22.7565 1.24352C21.8019 0.28892 20.9123 0.0450198 20.8139 0.0204198C20.5802 -0.0380802 20.333 0.0303198 20.1626 0.20072L11.2224 9.14072C11.1999 9.16322 11.1789 9.18752 11.1597 9.21302L5.93027 16.1544C5.85377 16.2558 5.80966 16.3725 5.79646 16.4916L1.27745 21.0102C1.22555 21.0027 1.17275 20.9979 1.11935 20.9979C0.82024 20.9979 0.539133 21.1143 0.327627 21.3261C-0.108884 21.7626 -0.108884 22.4727 0.327627 22.9092L1.09115 23.6727C1.30265 23.8842 1.58376 24.0003 1.88257 24.0003C2.18137 24.0003 2.46278 23.8839 2.67399 23.6724C2.88549 23.4609 3.00219 23.1798 3.00219 22.8807C3.00219 22.827 2.99709 22.7745 2.98989 22.7223L7.46781 18.2445C7.46781 18.2445 7.46991 18.2445 7.47081 18.2445C7.61661 18.2445 7.76301 18.1983 7.88632 18.1041L14.7907 12.8382C14.815 12.8196 14.8381 12.7995 14.8597 12.7779L23.7993 3.83762C23.9697 3.66722 24.0381 3.41972 23.9796 3.18602ZM2.10847 23.1069C2.04817 23.1672 1.96777 23.2005 1.88227 23.2005C1.79676 23.2005 1.71636 23.1672 1.65606 23.1069L0.892842 22.3437C0.768038 22.2189 0.768038 22.0161 0.892842 21.8913C0.953443 21.8307 1.03385 21.7974 1.11905 21.7974C1.20425 21.7974 1.28465 21.8307 1.34525 21.891L2.10877 22.6545C2.16907 22.7148 2.20237 22.7949 2.20237 22.8804C2.20237 22.9659 2.16907 23.0463 2.10847 23.1069ZM2.72589 21.9972L2.00167 21.2733L2.65059 20.6244L3.3745 21.3483L2.72559 21.9972H2.72589ZM3.86862 20.8545L3.1447 20.1306L3.91092 19.3644L4.63484 20.0883L3.86862 20.8545ZM5.12895 19.5942L4.40503 18.8703L5.07435 18.2013L5.79796 18.9252L5.12895 19.5942ZM6.29208 18.4311L5.56846 17.7072L6.10877 17.1672L6.83269 17.8908L6.29208 18.4314V18.4311Z" fill="white"></path>
    <path d="M5.66803 7.05418C6.19545 6.57448 6.49786 5.89078 6.49786 5.17888C6.49786 4.46698 6.19515 3.78268 5.66773 3.30328C5.65813 3.29458 5.65003 3.28468 5.64193 3.27478C5.17302 3.77218 4.88531 4.44178 4.88531 5.17918C4.88531 5.91658 5.17302 6.58618 5.64193 7.08358C5.65003 7.07368 5.65813 7.06348 5.66803 7.05478V7.05418Z" fill="white"></path>
    <path d="M6.98389 5.17858C6.98389 6.02338 6.62628 6.83458 6.00317 7.40578C6.46608 7.75138 7.04059 7.95598 7.66281 7.95598C8.28503 7.95598 8.85924 7.75138 9.32245 7.40578C8.69934 6.83458 8.34203 6.02338 8.34203 5.17858C8.34203 4.33378 8.69934 3.52258 9.32245 2.95138C8.85954 2.60578 8.28503 2.40118 7.66281 2.40118C7.04059 2.40118 6.46608 2.60578 6.00287 2.95138C6.62598 3.52258 6.98359 4.33348 6.98359 5.17858H6.98389Z" fill="white"></path>
    <path d="M9.65783 7.05417C9.66773 7.06317 9.67583 7.07307 9.68393 7.08297C10.1528 6.58557 10.4408 5.91597 10.4408 5.17857C10.4408 4.44117 10.1528 3.77127 9.68393 3.27417C9.67583 3.28407 9.66773 3.29397 9.65813 3.30297C9.13072 3.78297 8.82831 4.46667 8.82831 5.17887C8.82831 5.89107 9.13072 6.57447 9.65783 7.05417Z" fill="white"></path>
    </g>
    <defs>
    <clipPath id="clip0_2898_78">
    <rect width="24" height="24" fill="white"></rect>
    </clipPath>
    </defs>
    
        <animate attributeName="opacity" values="1;0;0;0;0;0;0;0;1" keyTimes="0;0.125;0.25;0.375;0.5;0.625;0.75;0.875;1" dur="2.4s" calcMode="discrete" repeatCount="indefinite"></animate>
    </g>
    
    <!-- Basketball -->
    <g id="icon2" opacity="0">
        <g clip-path="url(#clip0_2896_105)">
    <path d="M5.58824 22.1671L17.1606 5.18927L19.1656 6.90288C19.0386 7.12195 18.8747 7.31977 18.7543 7.54298C17.4787 9.90377 17.9257 12.7677 17.7547 15.3469C17.5992 17.6947 17.0822 21.5861 15.2037 23.2017C14.5644 23.7514 14.0379 23.8518 13.2141 23.9386C10.5527 24.2179 7.85974 23.5164 5.58765 22.1665L5.58824 22.1671Z" fill="white"></path>
    <path d="M4.99293 21.6959C2.81936 20.2226 1.11292 17.7443 0.441029 15.2134C0.205392 14.3259 0.226759 13.9392 0.57339 13.0759C1.95041 9.64568 6.51478 8.23027 9.58578 6.74813C11.243 5.94802 13.2076 5.09475 14.1632 3.45673L16.3896 4.66192L4.99293 21.6959Z" fill="white"></path>
    <path d="M0.0670719 12.7198C-0.036205 12.734 0.0112786 12.5852 0.0083109 12.5143C-0.0991208 9.56715 0.806036 6.64893 2.68045 4.36609C4.67536 1.93739 8.19033 1.90491 11.0601 2.46293C11.3658 2.52257 13.2349 2.99437 13.337 3.15262C13.3963 3.24415 13.2372 3.40949 13.1832 3.47739C11.719 5.31146 8.08527 6.53379 5.96276 7.51341C3.59036 8.60819 1.12536 10.2456 0.0670719 12.7198Z" fill="white"></path>
    <path d="M15.9747 23.2896C17.6942 21.3404 18.3281 18.6543 18.5263 16.1151C18.7489 13.2636 18.1939 10.0124 19.7437 7.46619C21.6395 9.39297 23.099 11.9516 23.2747 14.6991C23.3358 15.654 23.2901 16.1311 22.9108 16.9932C21.643 19.8707 18.9655 22.2964 15.9747 23.2896Z" fill="white"></path>
    <path d="M13.6569 2.56215C11.2215 1.72187 8.73399 1.35341 6.17047 1.81517C5.90456 1.863 5.66417 1.95748 5.41251 2.00649C5.35138 2.0183 5.21783 2.08385 5.23207 1.97461C6.54143 1.19634 7.86979 0.548565 9.37502 0.220841C10.4541 -0.0141751 11.218 -0.131093 12.2923 0.234423C13.4177 0.617653 13.9465 1.35813 13.6569 2.56274V2.56215Z" fill="white"></path>
    <path d="M18.4604 1.80337L18.413 2.00768L16.9238 4.07145L16.8033 4.13404C16.0174 3.6894 15.2458 3.1863 14.3751 2.91526C14.5413 2.08385 14.6095 1.3729 14.0468 0.673752L13.3043 0.0253906C15.1467 0.16829 16.8976 0.8633 18.461 1.80337H18.4604Z" fill="white"></path>
    <path d="M22.5031 6.22495C21.5849 5.52994 20.5343 5.67638 19.6838 6.39206L17.4847 4.57334L18.9436 2.2096C19.1051 2.09327 20.7979 3.76259 20.9913 3.9799C21.1848 4.1972 22.6325 6.08618 22.5037 6.22436L22.5031 6.22495Z" fill="white"></path>
    <path d="M23.8089 13.9598L23.2171 11.863C22.5648 10.0342 21.5113 8.37554 20.2126 6.93651C20.6702 6.24917 21.592 6.37436 22.2265 6.76703C23.318 7.44256 23.5537 8.45762 23.7822 9.64805C24.0516 11.0517 24.0819 12.5562 23.8089 13.9604V13.9598Z" fill="white"></path>
    </g>
    <defs>
    <clipPath id="clip0_2896_105">
    <rect width="24" height="24" fill="white"></rect>
    </clipPath>
    </defs>
    
        <animate attributeName="opacity" values="0;1;0;0;0;0;0;0;0" keyTimes="0;0.125;0.25;0.375;0.5;0.625;0.75;0.875;1" dur="2.4s" calcMode="discrete" repeatCount="indefinite"></animate>
    </g>
    
    <!-- Boxing -->
    <g id="icon3" opacity="0">
        <g clip-path="url(#clip0_2898_94)">
    <path d="M10.5464 19.4458C10.6287 19.8533 10.9803 19.8646 11.3119 19.9008C13.5084 20.1498 15.9386 19.5319 18.055 18.9954C17.6077 20.0683 17.9014 22.8524 16.7954 23.4387C15.3511 24.2037 8.27864 24.2196 6.94783 23.2757C6.18673 22.737 6.24014 20.1204 6.0265 19.215C5.47237 18.7623 4.73575 18.6083 4.15936 18.1941C1.6691 16.4037 -2.7573 8.30484 2.37679 7.0916L2.73285 8.68059C3.08225 10.2379 3.62971 11.7431 4.3641 13.1555C3.52066 7.42207 1.39092 0.749246 9.32237 0.11999C12.1754 -0.106361 17.7367 -0.325922 19.279 2.58722C20.6921 5.25589 19.7842 13.0582 18.6625 15.908C17.2694 19.4481 13.7777 19.1108 10.5441 19.4458H10.5464Z" fill="white"></path>
    </g>
    <defs>
    <clipPath id="clip0_2898_94">
    <rect width="20" height="24" fill="white"></rect>
    </clipPath>
    </defs>
        <animate attributeName="opacity" values="0;0;1;0;0;0;0;0;0" keyTimes="0;0.125;0.25;0.375;0.5;0.625;0.75;0.875;1" dur="2.4s" calcMode="discrete" repeatCount="indefinite"></animate>
    </g>
    
    <!-- Cricket -->
    <g id="icon4" opacity="0">
        <path d="M2.19998 20.3L6.09998 16.4C6.39998 16.1 6.59998 15.7 6.59998 15.2V14.8L9.29998 17.5H8.79998C8.39998 17.5 7.89998 17.7 7.59998 18L3.69998 21.9C3.39998 22.2 2.99998 22.2 2.69998 21.9L2.19998 21.4C1.89998 21 1.89998 20.6 2.19998 20.3Z" fill="white"></path>
    <path d="M6.80002 12.7L17.3 2.20001C17.3 2.20001 18.5 1.30001 20.6 3.50001C22.7 5.70001 21.9 6.80001 21.9 6.80001L11.3 17.2C11 17.5 10.6 17.5 10.4 17.2L6.80002 13.6C6.60002 13.3 6.60002 12.9 6.80002 12.7Z" fill="white"></path>
    <path d="M6.70003 4.5C7.50003 5.3 8.20003 5.3 8.70003 5.2C8.90003 4.8 9.00003 4.4 9.00003 4C9.00003 2.9 8.10003 2 7.00003 2C6.70003 2 6.40003 2.1 6.20003 2.2C6.00003 2.5 5.60003 3.4 6.70003 4.5Z" fill="white"></path>
    <path d="M6.4 4.69999C5.4 3.69999 5.6 2.79999 5.9 2.29999C5.3 2.69999 5 3.29999 5 3.99999C5 5.09999 5.9 5.99999 7 5.99999C7.5 5.99999 8 5.79999 8.3 5.49999C7.8 5.59999 7.1 5.49999 6.4 4.69999Z" fill="white"></path>
        <animate attributeName="opacity" values="0;0;0;1;0;0;0;0;0" keyTimes="0;0.125;0.25;0.375;0.5;0.625;0.75;0.875;1" dur="2.4s" calcMode="discrete" repeatCount="indefinite"></animate>
    </g>
    
    <!-- Cybersport -->
    <g id="icon5" opacity="0">
        <g clip-path="url(#clip0_2898_97)">
    <path d="M18.8078 3.59246C15.9958 1.87955 14.4908 4.54394 11.8953 4.49701C10.2305 4.46768 8.34811 2.824 6.8188 3.01523C3.38047 3.4458 1.19592 8.91537 0.516356 11.8801C-0.0972176 14.5515 -1.06041 21.5158 3.71967 19.702C5.15636 19.1564 6.13808 17.7028 7.3085 16.7689C10.2537 14.419 13.237 14.5081 16.3084 16.5671C17.9986 17.7016 22.2971 22.2854 23.6377 18.4173C24.9817 14.5363 22.4094 5.78638 18.8078 3.59246ZM7.2402 12.5923C3.05053 13.0134 2.28993 6.54311 6.35573 5.94829C10.9078 5.28307 11.5989 12.1546 7.2402 12.5923ZM15.6913 10.728C14.7559 10.8183 14.5556 9.37058 15.4968 9.22393C16.5098 9.06672 16.6545 10.6341 15.6913 10.728ZM17.8944 12.9559C16.9787 13.0158 16.8386 11.6056 17.6987 11.4507C18.7407 11.263 18.8819 12.8914 17.8944 12.9559ZM17.9025 8.51178C16.9104 8.57162 16.8814 7.05464 17.8052 7.00888C18.8205 6.95961 18.7881 8.45781 17.9025 8.51178ZM20.2121 10.7292C19.1759 10.9087 19.0127 9.38231 19.8983 9.22158C20.8708 9.0456 21.0572 10.5825 20.2121 10.7292Z" fill="white"></path>
    <path d="M6.68451 11.0706C4.71065 10.8277 4.58215 7.82664 6.46802 7.47115C9.44559 6.91035 9.36918 11.4003 6.68451 11.0706Z" fill="white"></path>
    </g>
    <defs>
    <clipPath id="clip0_2898_97">
    <rect width="24" height="24" fill="white"></rect>
    </clipPath>
    </defs>
    
        <animate attributeName="opacity" values="0;0;0;0;1;0;0;0;0" keyTimes="0;0.125;0.25;0.375;0.5;0.625;0.75;0.875;1" dur="2.4s" calcMode="discrete" repeatCount="indefinite"></animate>
    </g>
    
    <!-- Football -->
    <g id="icon6" opacity="0">
        <g clip-path="url(#clip0_2896_102)">
    <path d="M12.81 0.02L11.73 0C3.11999 0.22 -2.51001 9.18 1.11999 17.03C4.92999 25.28 16.33 26.43 21.69 19.06C27.27 11.38 22.15 0.68 12.81 0.02ZM21.27 9.17C21.36 9.35 21.58 9.81 21.62 9.98C21.65 10.11 21.47 10.73 21.42 10.91C21.16 11.88 20.77 12.84 20.28 13.7H16.96C16.29 12.41 15.55 11.16 14.76 9.95V9.83C15.22 8.67 15.64 7.5 16 6.31C16.02 6.28 16.22 6.26 16.27 6.25C16.67 6.21 17.09 6.2 17.49 6.2C17.84 6.2 18.25 6.2 18.61 6.22C18.9 6.24 19.21 6.27 19.5 6.31C20.19 7.18 20.81 8.15 21.28 9.17H21.27ZM15.11 1.21C16.35 1.37 17.41 2.06 18.36 2.83C18.55 2.98 19.26 3.57 19.35 3.73C19.4 3.83 19.44 4.14 19.44 4.26C19.47 4.7 19.41 5.14 19.37 5.58C19.35 5.61 19.29 5.61 19.25 5.61C19.04 5.61 18.78 5.55 18.57 5.55C17.98 5.53 17.33 5.53 16.74 5.55C16.52 5.55 15.97 5.67 15.8 5.58C15.67 5.51 15.39 5.24 15.25 5.13C14.34 4.45 13.37 3.87 12.37 3.34V1.26C13.27 1.13 14.2 1.09 15.11 1.2V1.21ZM14.16 10.29C14.77 11.2 15.36 12.13 15.88 13.09C15.99 13.3 16.28 13.77 16.34 13.97C16.35 14.01 16.36 14.05 16.34 14.09C15.9 15 15.41 15.87 14.86 16.72C14.77 16.85 14.26 17.65 14.2 17.68C14.05 17.75 13.94 17.71 13.8 17.72C12.85 17.8 11.92 17.78 10.96 17.75C10.58 17.74 10.19 17.77 9.81999 17.68C9.00999 16.54 8.27999 15.35 7.66999 14.09V13.95C8.31999 12.7 9.04999 11.5 9.80999 10.32C9.83999 10.28 9.86999 10.28 9.90999 10.28C10.13 10.25 10.53 10.27 10.78 10.26C11.91 10.23 13.03 10.26 14.15 10.3L14.16 10.29ZM4.54999 4.32C4.54999 4.2 4.57999 3.91 4.61999 3.8C4.66999 3.64 5.41999 3.01 5.59999 2.86C6.55999 2.08 7.62999 1.37 8.87999 1.21C9.77999 1.09 10.74 1.12 11.64 1.28L11.66 3.33C10.41 3.95 9.22999 4.72 8.14999 5.6C7.85999 5.64 7.53999 5.56 7.24999 5.55C6.37999 5.52 5.49999 5.55 4.63999 5.61C4.58999 5.57 4.53999 4.47 4.54999 4.33V4.32ZM4.53999 6.29C4.81999 6.29 5.10999 6.24 5.38999 6.22C5.80999 6.2 6.23999 6.22 6.65999 6.22C7.09999 6.22 7.53999 6.22 7.97999 6.29C8.38999 7.5 8.78999 8.71 9.26999 9.9C8.46999 11.13 7.71999 12.39 7.03999 13.68L6.96999 13.7C5.93999 13.64 4.82999 13.77 3.80999 13.7C3.75999 13.7 3.69999 13.69 3.64999 13.67C3.64999 13.65 3.65999 13.62 3.64999 13.6C3.08999 12.45 2.60999 11.3 2.37999 10.03C2.90999 8.69 3.62999 7.4 4.54999 6.3L4.53999 6.29ZM2.49999 17.78C2.43999 17.78 2.32999 17.76 2.27999 17.73C2.21999 17.7 2.00999 17.3 1.96999 17.21C1.68999 16.69 1.44999 16.11 1.26999 15.55C0.719991 13.87 0.539991 12.05 0.829991 10.31H1.74999C1.94999 11.29 2.27999 12.26 2.68999 13.18C2.76999 13.36 3.14999 14.01 3.14999 14.13C3.14999 14.17 3.05999 14.5 3.04999 14.59C2.92999 15.62 2.92999 16.66 3.07999 17.68C3.05999 17.75 2.57999 17.77 2.49999 17.76V17.78ZM2.71999 18.47L3.37999 18.37L4.08999 18.94C4.78999 19.46 5.50999 19.93 6.26999 20.35C6.43999 20.44 6.93999 20.64 7.04999 20.74C7.14999 20.83 7.40999 21.27 7.52999 21.42C7.93999 21.94 8.39999 22.4 8.88999 22.85C6.38999 22.16 4.20999 20.56 2.70999 18.46L2.71999 18.47ZM14.28 22.62C14.17 22.67 13.99 22.69 13.87 22.71C12.77 22.9 11.64 22.9 10.54 22.77C10.35 22.75 9.93999 22.71 9.77999 22.65C9.68999 22.62 9.49999 22.46 9.41999 22.39C9.00999 22.07 8.65999 21.7 8.32999 21.31C8.24999 21.21 7.69999 20.57 7.73999 20.5C8.44999 19.85 9.11999 19.16 9.72999 18.41L9.80999 18.37C11.28 18.5 12.76 18.48 14.23 18.37C14.9 19.1 15.56 19.84 16.29 20.51C15.9 21.08 15.45 21.64 14.93 22.1C14.8 22.22 14.43 22.54 14.29 22.61L14.28 22.62ZM15.1 22.86C15.83 22.23 16.43 21.5 16.99 20.72C18.12 20.19 19.18 19.51 20.16 18.75C20.31 18.64 20.45 18.5 20.59 18.38L21.27 18.45C19.8 20.57 17.59 22.17 15.09 22.85L15.1 22.86ZM21.78 17.68C21.7 17.86 20.93 17.76 20.92 17.7L21.04 16.55C21.06 15.71 21 14.87 20.87 14.04C20.89 14 20.94 13.97 20.96 13.92C21.55 12.78 22.01 11.56 22.26 10.3H23.2L23.32 11.64L23.29 12.85C23.14 14.55 22.64 16.2 21.78 17.67V17.68Z" fill="white"></path>
    </g>
    <defs>
    <clipPath id="clip0_2896_102">
    <rect width="24" height="23.96" fill="white"></rect>
    </clipPath>
    </defs>
    
        <animate attributeName="opacity" values="0;0;0;0;0;1;0;0;0" keyTimes="0;0.125;0.25;0.375;0.5;0.625;0.75;0.875;1" dur="2.4s" calcMode="discrete" repeatCount="indefinite"></animate>
    </g>
    
    <!-- Hockey -->
    <g id="icon7" opacity="0">
        <g clip-path="url(#clip0_2896_121)">
    <path d="M9.80004 7.76619C9.80004 10.119 7.60623 11.2954 4.90002 11.2954C2.19381 11.2954 0 10.119 0 7.76619C0 5.4134 2.19381 4.237 4.90002 4.237C7.60623 4.237 9.80004 5.4134 9.80004 7.76619Z" fill="white"></path>
    <path d="M20.7685 2.39684C20.5439 1.7707 20.155 1.14514 19.6162 0.655123C19.0969 0.183058 18.4501 -0.0231446 17.8618 0.00234106C17.3431 0.0249307 16.5429 0.273995 16.2568 1.0878C16.2465 1.11792 16.2373 1.14804 16.2293 1.17874L12.3259 16.5188L12.3242 16.5258C12.323 16.5298 12.3225 16.5333 12.3213 16.5368C12.3127 16.5744 12.3092 16.5877 12.2237 16.6225C12.0657 16.6862 11.7629 16.7343 11.2557 16.7059C10.4055 16.659 9.35143 16.4319 8.16175 16.1759C7.9245 16.1249 7.68209 16.0728 7.4345 16.0207C6.03285 15.7253 4.45313 15.4258 3.15431 15.5521C2.49025 15.6164 1.79689 15.7994 1.2213 16.2396C0.616982 16.7018 0.246465 17.3685 0.117215 18.1858V18.1904C-0.161391 19.9976 0.0161125 21.5551 1.13283 22.6151C2.17143 23.6004 3.77184 23.8871 5.55721 23.956C7.32421 24.0244 9.86498 24.0765 12.0921 23.5749C14.2779 23.0825 16.5653 21.9525 17.1323 19.3593L20.9098 4.36503C21.0856 3.71283 20.9862 3.00212 20.7691 2.39568L20.7685 2.39684Z" fill="white"></path>
    </g>
    <defs>
    <clipPath id="clip0_2896_121">
    <rect width="21" height="24" fill="white"></rect>
    </clipPath>
    </defs>
        <animate attributeName="opacity" values="0;0;0;0;0;0;1;0;0" keyTimes="0;0.125;0.25;0.375;0.5;0.625;0.75;0.875;1" dur="2.4s" calcMode="discrete" repeatCount="indefinite"></animate>
    </g>
    
    <!-- Tennis -->
    <g id="icon8" opacity="0">
        <g clip-path="url(#clip0_2896_115)">
    <path d="M22.599 2.37235C20.1707 -0.599017 16.4906 -0.526965 13.3194 1.19907L13.957 3.01867C16.1471 1.74431 18.6817 1.17972 20.7203 3.07137C25.0016 7.04394 18.6774 14.1954 14.5743 15.4139C11.0993 16.4441 8.05795 14.0513 8.37465 10.4379L6.54856 10.2239V14.3643C6.54856 15.1805 6.00857 16.8345 5.4718 17.4798C4.73214 18.3713 4.56466 17.583 3.91195 17.9615L0.0815725 21.8653C-0.365019 22.9558 1.11968 24.3775 2.22757 23.9075L6.01179 20.1726C6.44228 19.523 5.98281 19.3553 6.02682 19.1112C6.12237 18.5842 7.56198 17.9443 8.05259 17.8067C10.642 17.0776 12.9425 17.9583 15.4868 17.0808C20.5711 15.3279 26.8416 7.56014 22.599 2.37235ZM7.73053 16.3527L7.83788 15.2784C7.95382 15.1429 8.72892 15.9925 8.80299 16.1376L7.73053 16.3527Z" fill="white"></path>
    <path d="M12.6677 5.27703C12.5121 6.86972 10.7622 8.74847 9.17123 8.93021C8.94364 8.95602 9.05314 8.91301 9.00698 8.78396C8.86742 8.39466 8.83414 7.93976 8.66989 7.50744C7.93667 5.57492 5.8905 3.76285 3.75739 3.77038C4.07086 1.82711 5.50618 0.422617 7.40634 0.00750732C7.73377 2.70572 9.93774 5.01571 12.6677 5.27703Z" fill="white"></path>
    <path d="M12.7751 4.30811C10.5239 4.14142 8.66238 2.22396 8.3736 0.00860657C10.7815 -0.0279575 12.5786 1.99167 12.7751 4.30811Z" fill="white"></path>
    <path d="M8.05044 9.03996C5.73482 8.91951 3.7112 6.99452 3.75844 4.63184C5.97422 4.97812 7.83681 6.77083 8.05044 9.03996Z" fill="white"></path>
    </g>
    <defs>
    <clipPath id="clip0_2896_115">
    <rect width="24" height="24" fill="white"></rect>
    </clipPath>
    </defs>
        <animate attributeName="opacity" values="0;0;0;0;0;0;0;1;0" keyTimes="0;0.125;0.25;0.375;0.5;0.625;0.75;0.875;1" dur="2.4s" calcMode="discrete" repeatCount="indefinite"></animate>
    </g>
</svg>