<svg width="178" height="24" viewBox="0 0 178 24" fill="none" xmlns="http://www.w3.org/2000/svg">
<g clip-path="url(#clip0_2716_591)">
<path d="M140.234 21.2699C138.386 21.2699 136.719 20.8732 135.234 20.0799C133.749 19.2693 132.583 18.1569 131.737 16.7427C130.891 15.3112 130.467 13.7158 130.467 11.9567C130.467 10.1975 130.891 8.61077 131.737 7.19654C132.583 5.76505 133.749 4.65266 135.234 3.85928C136.719 3.0487 138.386 2.6434 140.234 2.6434C142.081 2.6434 143.748 3.0487 145.233 3.85928C146.718 4.65266 147.884 5.75642 148.73 7.17066C149.576 8.58489 149.999 10.1802 149.999 11.9567C149.999 13.7331 149.576 15.3284 148.73 16.7427C147.884 18.1569 146.718 19.2693 145.233 20.0799C143.748 20.8732 142.081 21.2699 140.234 21.2699ZM140.234 18.3207C141.442 18.3207 142.53 18.0534 143.497 17.5188C144.465 16.9669 145.224 16.208 145.777 15.2422C146.329 14.2591 146.606 13.1639 146.606 11.9567C146.606 10.7494 146.329 9.66285 145.777 8.69701C145.224 7.71395 144.465 6.95509 143.497 6.42042C142.53 5.86854 141.442 5.59258 140.234 5.59258C139.024 5.59258 137.936 5.86854 136.97 6.42042C136.002 6.95509 135.243 7.71395 134.69 8.69701C134.137 9.66285 133.861 10.7494 133.861 11.9567C133.861 13.1639 134.137 14.2591 134.69 15.2422C135.243 16.208 136.002 16.9669 136.97 17.5188C137.936 18.0534 139.024 18.3207 140.234 18.3207Z" fill="white"/>
<path d="M127.358 2.90207V21.0112H124.586L114.587 8.74874V21.0112H111.245V2.90207H114.017L124.016 15.1646V2.90207H127.358Z" fill="white"/>
<path d="M104.106 2.90207H107.474V21.0112H104.106V2.90207Z" fill="white"/>
<path d="M93.8886 21.2699C92.4899 21.2699 91.1344 21.0716 89.8217 20.6749C88.5267 20.2783 87.4991 19.7522 86.7393 19.0969L87.9051 16.484C88.6476 17.0703 89.5543 17.5532 90.6247 17.9327C91.7128 18.2949 92.8009 18.476 93.8886 18.476C95.2359 18.476 96.2376 18.2604 96.8937 17.8292C97.5671 17.398 97.904 16.8289 97.904 16.1218C97.904 15.6043 97.714 15.1818 97.3339 14.8541C96.9715 14.5092 96.505 14.2419 95.9352 14.0521C95.3654 13.8624 94.5883 13.6469 93.6039 13.4054C92.2221 13.0777 91.0999 12.75 90.2364 12.4223C89.3902 12.0946 88.6563 11.5859 88.0343 10.896C87.43 10.1889 87.128 9.2403 87.128 8.05026C87.128 7.04995 87.3954 6.1445 87.931 5.33387C88.4835 4.50603 89.3038 3.85066 90.3919 3.36775C91.4969 2.88485 92.8441 2.6434 94.4328 2.6434C95.5378 2.6434 96.6259 2.78136 97.6967 3.05732C98.7675 3.33325 99.6915 3.72995 100.469 4.24732L99.4064 6.86023C98.612 6.39458 97.7831 6.04101 96.9196 5.79956C96.0561 5.55811 95.2186 5.43736 94.4069 5.43736C93.077 5.43736 92.0843 5.66156 91.4277 6.10999C90.7889 6.55842 90.4696 7.15344 90.4696 7.89505C90.4696 8.41246 90.6506 8.83497 91.0135 9.1627C91.3932 9.49038 91.8683 9.74909 92.4381 9.93877C93.0078 10.1285 93.7853 10.3441 94.7694 10.5856C96.1166 10.896 97.2216 11.2237 98.0851 11.5686C98.9486 11.8963 99.6828 12.4051 100.287 13.0949C100.909 13.7848 101.22 14.7161 101.22 15.8889C101.22 16.8892 100.943 17.7947 100.391 18.6053C99.8552 19.4159 99.0349 20.0627 97.93 20.5456C96.8246 21.0285 95.4777 21.2699 93.8886 21.2699Z" fill="white"/>
<path d="M79.4925 16.8203H70.4261L68.6387 21.0112H65.1675L73.3272 2.90207H76.6429L84.8285 21.0112H81.3058L79.4925 16.8203ZM78.3785 14.1815L74.9591 6.26521L71.5656 14.1815H78.3785Z" fill="white"/>
<path d="M56.5504 21.2699C54.7198 21.2699 53.0619 20.8732 51.5768 20.0799C50.109 19.2693 48.9518 18.1569 48.1056 16.7427C47.2767 15.3284 46.8624 13.7331 46.8624 11.9567C46.8624 10.1802 47.2853 8.58489 48.1315 7.17066C48.9777 5.75642 50.1349 4.65266 51.6027 3.85928C53.0878 3.0487 54.7457 2.6434 56.5763 2.6434C58.0614 2.6434 59.4173 2.90207 60.6432 3.41948C61.8695 3.93689 62.9057 4.68713 63.752 5.67019L61.5758 7.71395C60.2635 6.29972 58.6488 5.59258 56.7318 5.59258C55.4882 5.59258 54.3746 5.86854 53.3902 6.42042C52.4057 6.95509 51.6373 7.70532 51.0848 8.67113C50.5319 9.63697 50.2559 10.7321 50.2559 11.9567C50.2559 13.1812 50.5319 14.2763 51.0848 15.2422C51.6373 16.208 52.4057 16.9669 53.3902 17.5188C54.3746 18.0534 55.4882 18.3207 56.7318 18.3207C58.6488 18.3207 60.2635 17.605 61.5758 16.1735L63.752 18.2431C62.9057 19.2262 61.8609 19.9764 60.6173 20.4938C59.3913 21.0112 58.0355 21.2699 56.5504 21.2699Z" fill="white"/>
<path fill-rule="evenodd" clip-rule="evenodd" d="M-0.000305176 22.9136H8.27692L11.9261 13.1951L15.7707 20.1744C15.7707 20.1744 17.1421 22.9136 19.1992 22.9136H25.7819C23.7248 22.9136 22.3533 20.1744 22.3533 20.1744L14.595 6.0874L12.6987 2.64352C12.6987 2.64352 11.9308 0.999992 10.148 0.999992C8.22803 0.999992 7.61091 2.64352 7.61091 2.64352L-0.000305176 22.9136ZM33.0502 0.999992H25.919L23.3085 7.83921L27.4036 15.7917L33.0502 0.999992Z" fill="white"/>
<path d="M12.6165 0.999992C14.3993 0.999992 15.1672 2.64352 15.1672 2.64352L24.8218 20.1744C24.8218 20.1744 26.1933 22.9136 28.2504 22.9136H34.5588L42.9243 0.999992H35.2445L30.0235 14.6784L23.3955 2.64352C23.3955 2.64352 22.6277 0.999992 20.8449 0.999992H12.6165Z" fill="#FF2885"/>
</g>
<circle cx="166" cy="12" r="12" fill="white"/>
<g clip-path="url(#clip1_2716_591)">
<path d="M166 22C171.523 22 176 17.5228 176 12C176 6.47714 171.523 1.99999 166 1.99999C160.477 1.99999 156 6.47714 156 12C156 17.5228 160.477 22 166 22Z" fill="#F0F0F0"/>
<path d="M176 12C176 17.5228 171.523 22 166 22C160.477 22 156 17.5228 156 12" fill="#D80027"/>
</g>
<defs>
<clipPath id="clip0_2716_591">
<rect width="150" height="24" fill="white"/>
</clipPath>
<clipPath id="clip1_2716_591">
<rect width="20" height="20" fill="white" transform="translate(156 1.99999)"/>
</clipPath>
</defs>
</svg>
