<svg width="69" height="24" viewBox="0 0 69 24" fill="none" xmlns="http://www.w3.org/2000/svg">
<path fill-rule="evenodd" clip-rule="evenodd" d="M0.749695 22.9136H9.02692L12.6761 13.1951L16.5207 20.1744C16.5207 20.1744 17.8921 22.9136 19.9492 22.9136H26.5319C24.4748 22.9136 23.1033 20.1744 23.1033 20.1744L15.345 6.08741L13.4487 2.64353C13.4487 2.64353 12.6808 1 10.898 1C8.97803 1 8.36091 2.64353 8.36091 2.64353L0.749695 22.9136ZM33.8002 1H26.669L24.0585 7.83921L28.1536 15.7917L33.8002 1Z" fill="white"/>
<path d="M13.3665 1C15.1493 1 15.9172 2.64353 15.9172 2.64353L25.5718 20.1744C25.5718 20.1744 26.9433 22.9136 29.0004 22.9136H35.3088L43.6743 1H35.9945L30.7735 14.6784L24.1455 2.64353C24.1455 2.64353 23.3777 1 21.5949 1H13.3665Z" fill="#FF2885"/>
<circle cx="56.25" cy="12" r="12" fill="white"/>
<g clip-path="url(#clip0_2773_1913)">
<path d="M56.25 22C61.7728 22 66.25 17.5228 66.25 12C66.25 6.47715 61.7728 2 56.25 2C50.7272 2 46.25 6.47715 46.25 12C46.25 17.5228 50.7272 22 56.25 22Z" fill="#F0F0F0"/>
<path d="M66.25 12C66.25 17.5228 61.7728 22 56.25 22C50.7272 22 46.25 17.5228 46.25 12" fill="#D80027"/>
</g>
<defs>
<clipPath id="clip0_2773_1913">
<rect width="20" height="20" fill="white" transform="translate(46.25 2)"/>
</clipPath>
</defs>
</svg>
