<svg width="25" height="24" viewBox="0 0 25 24" xmlns="http://www.w3.org/2000/svg">
<path fill-rule="evenodd" clip-rule="evenodd" d="M17 22.5H8C7.172 22.5 6.5 21.828 6.5 21C6.5 20.172 7.172 19.5 8 19.5H8.954C8.954 18.4875 9.776 17.664 10.79 17.664H11V16.35C8.5595 15.8535 6.5495 14.172 5.5955 11.9325C2.7125 11.496 0.5 9.0045 0.5 6V5.85C0.5 4.2765 1.7765 3 3.35 3H5C5 1.344 6.344 0 8 0H17C18.656 0 20 1.344 20 3H21.65C23.2235 3 24.5 4.2765 24.5 5.85V6C24.5 9.0045 22.2875 11.496 19.4045 11.9325C18.4505 14.172 16.4405 15.8535 14 16.35V17.664H14.21C15.224 17.664 16.046 18.4875 16.046 19.5H17C17.828 19.5 18.5 20.172 18.5 21C18.5 21.828 17.828 22.5 17 22.5ZM5.5745 6H4.046C3.7445 6 3.5 6.2445 3.5 6.546C3.5 7.7535 4.4795 8.733 5.6855 8.733C5.897 8.733 6.0665 8.562 6.0665 8.352V6.4935C6.0665 6.2205 5.846 6 5.5745 6ZM18.929 6.4935C18.929 6.2205 19.1495 6 19.421 6H20.9495C21.251 6 21.4955 6.2445 21.4955 6.546C21.4955 7.7535 20.516 8.733 19.31 8.733C19.1 8.733 18.929 8.562 18.929 8.352V6.4935Z"/>
</svg>
