<svg width="24" height="24" viewBox="0 0 24 24" xmlns="http://www.w3.org/2000/svg">
<path d="M6.8783 6.78298C9.18722 5.36939 10.7707 2.87665 10.9572 0C14.3092 1.68345 16.6096 5.15281 16.6096 9.15945C16.6096 10.3391 16.4101 11.4722 16.0432 12.5269C17.7829 12.0017 19.132 10.5761 19.5486 8.79197C21.2138 10.4599 22.2434 12.7624 22.2434 15.3055C22.2434 19.3195 19.678 22.7344 16.0974 24C12.5167 22.7344 9.95133 19.3195 9.95133 15.3055C9.95133 15.2037 9.95298 15.1022 9.95626 15.0012C8.6783 16.4465 7.90265 18.3463 7.90265 20.4272C7.90265 21.4211 8.07959 22.3737 8.40369 23.2552C4.58916 22.3299 1.75659 18.8924 1.75659 14.7933C1.75659 11.5279 3.55424 8.68225 6.21391 7.19212L6.8783 6.78298Z"/>
</svg>
