<svg width="32" height="32" viewBox="0 0 32 32" xmlns="http://www.w3.org/2000/svg">
	<path class="shake" d="M13.9544 10.2678L15.1696 17.1595L7.29223 18.5488L7.63952 20.5185L15.5169 19.1291L17.2545 28.9774L19.2241 28.6301L17.4865 18.7818L25.363 17.3929L26.4327 23.4575C26.6504 24.6921 26.6175 25.2103 26.4704 25.7043L26.4394 25.803C26.2669 26.3299 25.9556 26.7744 25.5196 27.1168C25.0835 27.4591 24.6301 27.6805 23.3132 27.9127L13.1599 29.703C11.843 29.9352 11.3412 29.8823 10.8144 29.7097C10.2875 29.5371 9.84303 29.2259 9.50065 28.7898C9.15826 28.3537 8.93693 27.9004 8.70472 26.5834L7.28817 18.5497L5.81502 18.8095C4.99919 18.9533 4.22121 18.4086 4.07736 17.5927L3.70902 15.5038C3.57451 14.741 3.61114 14.1469 3.78374 13.62C3.95633 13.0931 4.26756 12.6487 4.70362 12.3063C5.13968 11.9639 5.68542 11.7263 6.44825 11.5918L13.9544 10.2678ZM23.7994 8.53229C25.4311 8.24458 26.9871 9.33408 27.2748 10.9658L27.7086 13.4259C27.8524 14.2418 27.3077 15.0197 26.4918 15.1636L17.1393 16.8122L15.9241 9.92049L23.7994 8.53229ZM22.8932 5.30733C23.2329 7.23413 19.0638 9.30813 15.1945 10.0477L14.937 10.095C15.5555 5.92421 16.4827 3.50422 17.7186 2.835C19.5724 1.83116 22.5459 3.33771 22.8932 5.30733ZM9.84013 4.22418C11.1869 4.4239 12.8235 6.26667 14.7497 9.7525L14.937 10.095C10.9978 10.7896 6.17049 10.2868 5.82319 8.31723C5.4759 6.34762 7.75475 3.91494 9.84013 4.22418Z"></path>
</svg>