<svg width="24" height="24" viewBox="0 0 24 24" xmlns="http://www.w3.org/2000/svg">
    <path fill-rule="evenodd" clip-rule="evenodd" d="M19.044 10.884L14.4855 6.3255C13.899 5.7405 12.9495 5.7405 12.363 6.3255C11.778 6.9105 11.778 7.8615 12.363 8.4465L14.379 10.4625H5.92346C5.09696 10.4625 4.42346 11.1345 4.42346 11.9625C4.42346 12.789 5.09696 13.4625 5.92346 13.4625H14.379L12.363 15.477C11.778 16.0635 11.778 17.013 12.363 17.5995C12.9495 18.1845 13.899 18.1845 14.4855 17.5995L19.044 13.0395C19.05 13.035 19.056 13.029 19.0605 13.023C19.3545 12.7305 19.5 12.3465 19.5 11.9625C19.5 11.5785 19.3545 11.1945 19.0605 10.9005C19.056 10.896 19.05 10.89 19.044 10.884Z"></path>
</svg>