<svg width="25" height="24" viewBox="0 0 25 24" xmlns="http://www.w3.org/2000/svg">
    <path d="M9.99504 18.9685C10.055 19.4465 10.085 19.7452 10.04 19.8349C9.99504 19.9544 9.84504 20.0291 9.57504 20.0589L9.29004 20.1037C9.14004 20.1037 9.02003 20.1336 8.93003 20.1486C8.84003 20.1635 8.69003 20.1784 8.48004 20.1934C8.27004 20.2083 8.13504 20.2232 8.04504 20.2382C7.97004 20.2382 7.55003 19.8199 6.80003 18.9685C6.05003 18.117 5.66004 17.6689 5.64504 17.6689C5.55504 17.7735 5.27004 18.3112 4.80504 19.2971C4.35504 20.2382 4.08504 20.7461 3.99504 20.7909C3.93504 20.8208 3.75504 20.8506 3.45504 20.8954C2.46504 21.0299 1.95504 21.0448 1.94004 20.9403C1.92504 20.8357 1.89504 20.6863 1.86504 20.5071C1.83504 20.3278 1.80504 20.1784 1.79004 20.0739C1.70004 19.4614 1.70004 19.1029 1.74504 18.9834C1.74504 18.9834 2.07504 18.3859 2.72004 17.2058C3.24504 16.2498 3.50004 15.712 3.48504 15.5925C3.47004 15.473 3.08004 15.0249 2.31504 14.2631C1.83504 13.7851 1.35504 13.322 0.890035 12.844C0.845035 12.7842 0.800035 12.6797 0.770035 12.5303C0.755035 12.4257 0.725035 12.2913 0.710035 12.112C0.710035 11.9029 0.680035 11.7834 0.680035 11.7535C0.680035 11.649 0.635035 11.4996 0.590035 11.3054C0.545035 11.1112 0.515035 10.9469 0.500035 10.8573C0.485035 10.7676 0.560035 10.7079 0.740035 10.678C0.845035 10.6631 1.01004 10.6481 1.23504 10.6332C1.46004 10.6183 1.62504 10.6033 1.73004 10.5884C1.82004 10.5884 1.97004 10.5585 2.15004 10.5137C2.33004 10.4689 2.48004 10.454 2.57004 10.439C2.64504 10.439 3.06504 10.8573 3.81504 11.7386C4.56504 12.6199 4.97004 13.0382 5.00004 13.0382C5.09004 12.9635 5.37504 12.4108 5.85504 11.395C6.32004 10.4091 6.59003 9.90125 6.68003 9.88632L8.40504 9.64731C8.57003 9.61744 8.66004 9.64731 8.67503 9.73694L8.91504 11.5295C8.93004 11.6639 8.63004 12.2614 8.03004 13.3519C7.43004 14.4423 7.11504 15.01 7.13004 15.0697C7.13004 15.1593 7.53504 15.5925 8.31503 16.3842C9.23003 17.3253 9.71004 17.8033 9.75504 17.8481C9.84504 17.9527 9.92004 18.3112 10.01 18.9535L9.99504 18.9685Z"/>
    <path d="M15.95 5.09129C15.98 5.21079 15.92 5.36017 15.785 5.55436C15.47 5.97261 15.17 6.67469 14.87 7.67552C14.63 8.51203 14.45 9.27386 14.345 9.961C14.105 11.634 14.09 13.2324 14.27 14.8008C14.315 15.2191 14.225 15.488 14 15.6075C13.82 15.6971 13.22 15.8465 12.2 16.0556C11.585 16.1751 11.21 16.2349 11.09 16.2498C10.52 16.2946 10.22 16.205 10.175 15.951C9.99499 15.0249 10.055 13.7851 10.385 12.2465C10.61 11.171 10.955 9.961 11.42 8.6166C11.825 7.46639 12.02 6.89876 12.02 6.89876C12.02 6.839 11.87 6.82407 11.585 6.88382C11.105 6.97344 10.385 7.13776 9.43999 7.37676C8.49499 7.61577 7.77499 7.78008 7.29499 7.86971C7.12999 7.89959 7.03999 7.83983 7.00999 7.67552C6.97999 7.48133 6.94999 7.21245 6.94999 6.86888C6.94999 6.46556 6.93499 6.19668 6.91999 6.06224C6.88999 5.76349 6.79999 5.28548 6.66499 4.59834C6.63499 4.43403 6.75499 4.31452 7.05499 4.25477C7.32499 4.19502 7.68499 4.15021 8.13499 4.12033C8.74999 4.06058 9.10999 4.03071 9.22999 4.01577C10.37 3.88133 12.29 3.5527 15.005 3.01494C15.29 2.95519 15.485 3.07469 15.575 3.37344C15.71 3.82158 15.845 4.40415 15.98 5.09129H15.95Z"/>
    <path d="M24.5 15.4283C24.5 18.371 22.67 19.8498 19.025 19.8498C18.5 19.8498 17.78 19.7901 16.895 19.6855C15.74 19.5362 15.14 19.3718 15.08 19.1627C15.05 19.0731 15.035 18.7893 15.035 18.2814C15.035 17.9976 15.065 17.6391 15.14 17.176C15.23 16.5785 15.32 16.2797 15.44 16.2797C15.47 16.2797 15.53 16.2947 15.605 16.3395C16.4 16.7279 17.3 16.937 18.32 16.937C19.79 16.937 20.51 16.459 20.51 15.5179C20.51 14.9951 20.24 14.6067 19.7 14.3378C19.28 14.1287 18.785 14.0241 18.2 14.0241C17.96 14.0241 17.585 14.054 17.105 14.1137C16.625 14.1735 16.25 14.2034 16.01 14.2034C15.785 14.2034 15.665 14.0988 15.665 13.8897C15.665 13.2623 15.695 12.2913 15.755 10.9918C15.815 9.69217 15.845 8.72122 15.845 8.09383C15.845 7.97433 15.89 7.83989 15.995 7.70545C16.1 7.57101 16.205 7.49632 16.325 7.46644C16.475 7.43657 17.39 7.42163 19.085 7.42163C21.005 7.42163 22.31 7.42163 22.97 7.43657C23.15 7.43657 23.24 7.52619 23.24 7.66063C23.24 8.03408 23.195 8.5569 23.12 9.19922C23.015 10.0357 22.895 10.454 22.76 10.454H22.655C21.155 10.3196 20.225 10.2449 19.85 10.2449C19.115 10.2449 18.725 10.2897 18.68 10.3644C18.56 10.5586 18.515 10.932 18.515 11.4847C18.515 11.5743 18.53 11.6341 18.56 11.6789C18.725 11.6789 18.98 11.664 19.34 11.6341C19.685 11.6042 19.94 11.5893 20.12 11.5893C21.35 11.5893 22.37 11.9179 23.195 12.5752C24.08 13.2772 24.515 14.2332 24.515 15.4432L24.5 15.4283Z"/>
</svg>
