<svg width="22" height="16" viewBox="0 0 22 16" fill="none" xmlns="http://www.w3.org/2000/svg">
<g clip-path="url(#clip0_2972_1181)">
<path d="M4.00964 0C3.14861 0 2.32384 0.340807 1.70752 0.941704C1.10027 1.55157 0.755859 2.36771 0.755859 3.21973V16H18.493C19.354 16 20.1879 15.6592 20.7951 15.0583C21.4114 14.4484 21.7559 13.6323 21.7559 12.7713V0H4.00964ZM7.67127 12.6099C7.67127 13.2197 7.42655 13.8117 6.99151 14.2422C6.55646 14.6726 5.95828 14.9238 5.3329 14.9238H1.90692V10.0538C1.90692 10.0538 2.95828 10.3498 4.30873 10.3498C6.52927 10.3498 7.18184 9.49776 7.18184 8.4574V5.77578H5.17882V8.46637C5.17882 9.13004 4.74377 9.61435 3.93713 9.61435C3.25737 9.61435 2.57761 9.40807 1.92504 9.09417V3.39013C1.92504 3.0852 1.97942 2.78924 2.09725 2.50224C2.21507 2.22422 2.38728 1.97309 2.6048 1.75785C2.82232 1.5426 3.0761 1.3722 3.36613 1.25561C3.6471 1.13901 3.95526 1.07623 4.25435 1.07623H7.67127V12.6099ZM14.1426 12.6368C14.1426 13.2466 13.8979 13.8386 13.4537 14.2691C13.0187 14.7085 12.4296 14.9507 11.8042 14.9507H8.37822V9.61435C8.96734 10.1076 9.99151 10.4305 11.6501 10.3498C12.5474 10.3139 13.49 10.0717 13.49 10.0717V9.09417C13.0096 9.31839 12.4477 9.55157 11.7136 9.59641C10.4537 9.70404 9.70148 9.09417 9.70148 8.00897C9.70148 6.92377 10.4537 6.33184 11.7136 6.42152C12.3389 6.46637 12.9371 6.64574 13.49 6.93274V5.95516C13.49 5.95516 12.5383 5.713 11.6501 5.67713C9.99151 5.59641 8.96734 5.91928 8.37822 6.41256V3.39013C8.37822 3.0852 8.44166 2.78924 8.55948 2.50224C8.67731 2.22422 8.84045 1.97309 9.05797 1.75785C9.2755 1.5426 9.53834 1.3722 9.8193 1.25561C10.1003 1.13901 10.4084 1.07623 10.7166 1.07623H14.1426V12.6368ZM20.5867 12.6188C20.5867 13.2377 20.342 13.8206 19.8979 14.2601C19.4537 14.6996 18.8646 14.9327 18.2483 14.9327H14.8223V10.2332H18.4386C19.2906 10.2332 19.9341 9.77578 19.9341 9.07623C19.9341 8.43049 19.354 8.00897 18.5927 7.96413V7.93722C19.2906 7.84753 19.6622 7.3991 19.6622 6.87892C19.6622 6.22422 19.1093 5.83856 18.3661 5.80269C18.3027 5.78475 18.2121 5.78475 18.1305 5.78475H14.8314V3.39013C14.8314 2.78027 15.0852 2.18834 15.5202 1.75785C15.9553 1.31839 16.5534 1.07623 17.1698 1.07623H20.5867V12.6188ZM17.3238 8.27803C17.3782 8.27803 17.4507 8.27803 17.496 8.28699C17.7498 8.35874 17.9673 8.58296 17.9673 8.88789C17.9673 9.03139 17.922 9.16592 17.8405 9.27354C17.7498 9.38117 17.632 9.45291 17.487 9.48879C17.4507 9.48879 17.3601 9.49776 17.3238 9.49776H15.9734V8.27803H17.3238ZM15.9734 7.59641V6.47534H17.1969C17.1969 6.47534 17.2966 6.4843 17.3238 6.4843C17.5776 6.52915 17.7951 6.72646 17.7951 7.03139C17.7951 7.16592 17.7589 7.29148 17.6682 7.3991C17.5776 7.49776 17.4598 7.56054 17.3238 7.57847C17.3148 7.59641 17.2332 7.59641 17.1969 7.59641H15.9734Z" fill="white" fill-opacity="0.3"/>
</g>
<defs>
<clipPath id="clip0_2972_1181">
<rect width="21" height="16" fill="white" transform="translate(0.755859)"/>
</clipPath>
</defs>
</svg>
