<svg width="27" height="16" viewBox="0 0 27 16" fill="none" xmlns="http://www.w3.org/2000/svg">
<g opacity="0.3" clip-path="url(#clip0_2972_1124)">
<path d="M13.4531 1.96222C13.3549 1.87778 13.2522 1.79333 13.1495 1.71333C13.0446 1.79333 12.9442 1.87778 12.846 1.96222C11.1521 3.42889 10.0809 5.58889 10.0809 8C10.0809 10.4111 11.1521 12.5689 12.846 14.0356C12.9442 14.12 13.0446 14.2044 13.1495 14.2844C13.2522 14.2044 13.3549 14.12 13.4531 14.0356C15.147 12.5689 16.2182 10.4089 16.2182 8C16.2182 5.59111 15.147 3.42889 13.4531 1.96222ZM18.1152 0C16.4704 0 14.9416 0.491111 13.6673 1.33556C13.732 1.38889 13.799 1.44222 13.8615 1.49556C15.754 3.13556 16.8386 5.50667 16.8386 8C16.8386 10.4933 15.754 12.8622 13.8615 14.5022C13.799 14.5556 13.732 14.6089 13.6673 14.6622C14.9416 15.5067 16.4704 16 18.1152 16C22.5519 16 26.1495 12.4178 26.1495 8C26.1495 3.58222 22.5519 0 18.1152 0ZM9.45821 8C9.45821 5.50667 10.5451 3.13556 12.4376 1.49556C12.5001 1.44222 12.567 1.38889 12.6318 1.33556C11.3574 0.491111 9.82868 0 8.18387 0C3.74713 0 0.149536 3.58 0.149536 8C0.149536 12.42 3.74713 16 8.18387 16C9.82868 16 11.3574 15.5067 12.6318 14.6622C12.567 14.6089 12.5001 14.5556 12.4376 14.5022C10.5451 12.8622 9.45821 10.4911 9.45821 8Z" fill="white"/>
</g>
<defs>
<clipPath id="clip0_2972_1124">
<rect width="26" height="16" fill="white" transform="translate(0.149536)"/>
</clipPath>
</defs>
</svg>
