<svg width="44" height="24" viewBox="0 0 44 24" fill="none" xmlns="http://www.w3.org/2000/svg">
<path fill-rule="evenodd" clip-rule="evenodd" d="M0.499695 22.9136H8.77692L12.4261 13.1951L16.2707 20.1744C16.2707 20.1744 17.6421 22.9136 19.6992 22.9136H26.2819C24.2248 22.9136 22.8533 20.1744 22.8533 20.1744L15.095 6.08741L13.1987 2.64353C13.1987 2.64353 12.4308 1 10.648 1C8.72803 1 8.11091 2.64353 8.11091 2.64353L0.499695 22.9136ZM33.5502 1H26.419L23.8085 7.83921L27.9036 15.7917L33.5502 1Z" fill="white"/>
<path d="M13.1165 1C14.8993 1 15.6672 2.64353 15.6672 2.64353L25.3218 20.1744C25.3218 20.1744 26.6933 22.9136 28.7504 22.9136H35.0588L43.4243 1H35.7445L30.5235 14.6784L23.8955 2.64353C23.8955 2.64353 23.1277 1 21.3449 1H13.1165Z" fill="#FF2885"/>
</svg>
